<svg width="18" height="22" viewBox="0 0 18 22" fill="none" xmlns="http://www.w3.org/2000/svg">
<path d="M0.767442 18.6744V3.32558C0.767442 2.64712 1.03696 1.99645 1.5167 1.5167C1.99645 1.03696 2.64712 0.767442 3.32558 0.767442H16.1163C16.3877 0.767442 16.6479 0.875249 16.8398 1.06715C17.0317 1.25904 17.1395 1.51931 17.1395 1.7907V20.2093C17.1395 20.4807 17.0317 20.741 16.8398 20.9329C16.6479 21.1248 16.3877 21.2326 16.1163 21.2326H3.32558C2.64712 21.2326 1.99645 20.963 1.5167 20.4833C1.03696 20.0036 0.767442 19.3529 0.767442 18.6744ZM0.767442 18.6744C0.767442 17.996 1.03696 17.3453 1.5167 16.8655C1.99645 16.3858 2.64712 16.1163 3.32558 16.1163H17.1395" stroke="black" stroke-opacity="0.7" stroke-width="1.5" stroke-linecap="round" stroke-linejoin="round"/>
</svg>
