<svg width="26" height="13" viewBox="0 0 26 13" fill="none" xmlns="http://www.w3.org/2000/svg">
<path d="M0 -9.53674e-07C-1.49247e-07 1.70718 0.336255 3.39765 0.989566 4.97488C1.64288 6.55212 2.60045 7.98523 3.80761 9.19239C5.01477 10.3995 6.44788 11.3571 8.02512 12.0104C9.60235 12.6637 11.2928 13 13 13C14.7072 13 16.3977 12.6637 17.9749 12.0104C19.5521 11.3571 20.9852 10.3995 22.1924 9.19239C23.3995 7.98523 24.3571 6.55212 25.0104 4.97488C25.6637 3.39765 26 1.70718 26 0H19.4749C19.4749 0.85029 19.3074 1.69226 18.982 2.47782C18.6566 3.26339 18.1797 3.97717 17.5784 4.57842C16.9772 5.17966 16.2634 5.6566 15.4778 5.98199C14.6923 6.30738 13.8503 6.47486 13 6.47486C12.1497 6.47486 11.3077 6.30738 10.5222 5.98199C9.73661 5.6566 9.02283 5.17966 8.42158 4.57842C7.82034 3.97717 7.3434 3.26339 7.01801 2.47782C6.69262 1.69226 6.52514 0.85029 6.52514 -9.53674e-07H0Z" fill="#0A112F"/>
</svg>
